PathFileType	4	(X/Y/Z)	5_coords_data.trc
DataRate	CameraRate	NumFrames	NumMarkers	Units	OrigDataRate	OrigDataStartFrame	OrigNumFrames
30.0	30.0	8	21	m	30.0	20	67
Frame#	Time	THUMB_TIP	THUMB_IP	THUMB_MCP	THUMB_CMC	INDEX_TIP	INDEX_DIP	INDEX_PIP	INDEX_MCP	MIDDLE_TIP	MIDDLE_DIP	MIDDLE_PIP	MIDDLE_MCP	RING_TIP	RING_DIP	RING_PIP	RING_MCP	PINKY_TIP	PINKY_DIP	PINKY_PIP	PINKY_MCP	WRIST
X1	Y1	Z1	X2	Y2	Z2	X3	Y3	Z3	X4	Y4	Z4	X5	Y5	Z5	X6	Y6	Z6	X7	Y7	Z7	X8	Y8	Z8	X9	Y9	Z9	X10	Y10	Z10	X11	Y11	Z11	X12	Y12	Z12	X13	Y13	Z13	X14	Y14	Z14	X15	Y15	Z15	X16	Y16	Z16	X17	Y17	Z17	X18	Y18	Z18	X19	Y19	Z19	X20	Y20	Z20	X21	Y21	Z21
19	0.6333333333333333	-0.008792699813842774	-0.12288200378417968	0.99775	-0.01821100044250488	-0.10381500244140625	1.0125499877929687	-0.03591249847412109	-0.09458730316162109	1.0363800048828125	-0.04143119812011719	-0.06341609954833985	1.046550048828125	-0.017089899063110352	-0.09707250213623046	0.920948974609375	-0.03031949996948242	-0.09390910339355468	0.9388079833984375	-0.04351300048828125	-0.09011609649658203	0.9577880249023437	-0.05561339950561523	-0.08115229797363281	0.9923159790039062	-0.009584529876708985	-0.06412570190429688	0.9073170166015625	-0.023832300186157226	-0.0645896987915039	0.9270399780273437	-0.04137139892578125	-0.06371289825439454	0.9509299926757813	-0.05746609878540039	-0.0603301010131836	0.9864719848632812	-0.008272729873657226	-0.04104520034790039	0.9134810180664062	-0.022506599426269532	-0.04022299957275391	0.9318889770507812	-0.039533500671386716	-0.03996609878540039	0.9533839721679688	-0.05385039901733398	-0.041404800415039064	0.9883579711914062	-0.01082450008392334	-0.015362199783325195	0.9366729736328125	-0.023267900466918946	-0.017028200149536134	0.9525809936523437	-0.03401490020751953	-0.01970450019836426	0.9678099975585938	-0.04440629959106445	-0.025142099380493162	0.991677978515625	-0.05892559814453125	-0.03372529983520508	1.0603900146484375
20	0.6666666666666666	-0.008574640274047852	-0.12275199890136719	0.9977999877929687	-0.018020999908447265	-0.1037509994506836	1.0126699829101562	-0.035716800689697265	-0.09459609985351562	1.0363900146484375	-0.041342098236083986	-0.06343569946289063	1.0466400146484376	-0.01695120048522949	-0.09695490264892578	0.9210490112304688	-0.0301289005279541	-0.09379679870605469	0.9389580078125	-0.04331819915771484	-0.09002739715576172	0.9579459838867187	-0.05544350051879883	-0.08110679626464844	0.9924660034179688	-0.009296239852905274	-0.06392250061035157	0.9075029907226563	-0.02352079963684082	-0.06440779876708984	0.9272659912109374	-0.041165298461914065	-0.06359809875488281	0.951155029296875	-0.05733710098266601	-0.06025429916381836	0.986677001953125	-0.008247670173645019	-0.04087799835205078	0.9135599975585937	-0.0224281005859375	-0.0400630989074707	0.9320369873046875	-0.03941590118408203	-0.03985440063476563	0.9535180053710938	-0.053745899200439456	-0.04134640121459961	0.9885349731445312	-0.011062100410461425	-0.015175999641418457	0.9366539916992187	-0.023399599075317384	-0.01687809944152832	0.9526489868164062	-0.03408449935913086	-0.019587900161743162	0.967906982421875	-0.044361301422119144	-0.025042200088500978	0.9918280029296875	-0.05872719955444336	-0.033807598114013675	1.0604100341796876
21	0.7	-0.008452770233154296	-0.12279100036621093	0.9980830078125	-0.017918500900268555	-0.10373799896240235	1.0129400024414061	-0.035641700744628906	-0.09464600372314454	1.0366400146484376	-0.0412411994934082	-0.06348080062866211	1.0468499755859375	-0.016936899185180664	-0.09698040008544923	0.9211649780273438	-0.03009390068054199	-0.09382929992675781	0.9391090087890624	-0.043277099609375	-0.09006649780273437	0.95810498046875	-0.05543130111694336	-0.08114969635009765	0.99247900390625	-0.009257060050964355	-0.06401290130615235	0.9076929931640625	-0.02346339988708496	-0.06450140380859375	0.9274010009765625	-0.04109030151367187	-0.06365470123291016	0.9512949829101562	-0.05727109909057617	-0.060285900115966795	0.9868070068359375	-0.008186200141906737	-0.04097249984741211	0.913739990234375	-0.022366199493408203	-0.040134300231933595	0.932135009765625	-0.039374198913574215	-0.039917701721191405	0.9536409912109375	-0.05364450073242188	-0.041380001068115235	0.9886420288085938	-0.011185099601745605	-0.015113200187683105	0.9367210083007812	-0.023476900100708006	-0.016871599197387694	0.9527039794921875	-0.03407770156860351	-0.01962859916687012	0.9680360107421875	-0.0442869987487793	-0.02513319969177246	0.9919349975585937	-0.058692001342773435	-0.03386240005493164	1.060719970703125
22	0.7333333333333333	-0.008396089553833008	-0.12283699798583984	0.9982360229492188	-0.017861799240112306	-0.10381400299072266	1.0131099853515626	-0.035594799041748046	-0.09475839996337891	1.036719970703125	-0.04122549819946289	-0.06361629867553711	1.047030029296875	-0.016856300354003907	-0.09702649688720703	0.9213820190429688	-0.030080699920654298	-0.09387349700927734	0.9393259887695312	-0.04328900146484375	-0.09012779998779297	0.9583289794921875	-0.055276199340820314	-0.08118039703369141	0.9926690063476562	-0.009284460067749023	-0.06414250183105469	0.9078590087890624	-0.023476200103759767	-0.06462660217285156	0.9276119995117188	-0.04111769866943359	-0.06378150177001952	0.9515330200195312	-0.05722439956665039	-0.06037350082397461	0.9869669799804688	-0.00820246982574463	-0.04105450057983399	0.9138920288085938	-0.022380800247192384	-0.04024959945678711	0.9323720092773438	-0.03935300064086914	-0.04004669952392578	0.9539450073242187	-0.05351599884033203	-0.04145259857177734	0.9888820190429688	-0.011345999717712402	-0.015084600448608399	0.93677099609375	-0.023565799713134765	-0.01688170051574707	0.9528369750976563	-0.034105998992919925	-0.01968269920349121	0.9681920166015625	-0.04423149871826172	-0.025153900146484377	0.9920809936523437	-0.058734798431396486	-0.03379660034179687	1.0608399658203125
23	0.7666666666666667	-0.008298660278320312	-0.12278099822998047	0.9983610229492188	-0.01788559913635254	-0.10383499908447266	1.0131900024414062	-0.035672698974609375	-0.09480139923095703	1.0368299560546874	-0.041271400451660153	-0.06367050170898438	1.0470799560546875	-0.016993099212646485	-0.09713749694824218	0.9215260009765625	-0.030174299240112303	-0.09398030090332031	0.9394010009765625	-0.04338150024414063	-0.09021109771728515	0.9584199829101563	-0.05543339920043945	-0.08132559967041016	0.9926690063476562	-0.009446700096130372	-0.06426490020751953	0.9079559936523437	-0.023589099884033203	-0.06472979736328124	0.927697998046875	-0.041201900482177735	-0.06389130020141602	0.9516279907226562	-0.05728900146484375	-0.06045759963989258	0.9870800170898437	-0.008336730003356933	-0.04116109848022461	0.9139660034179687	-0.022494100570678712	-0.040337200164794924	0.9324340209960937	-0.0394656982421875	-0.0401161994934082	0.953969970703125	-0.05368310165405273	-0.04154290008544922	0.9889509887695312	-0.01148610019683838	-0.015109999656677246	0.9368519897460937	-0.023685400009155273	-0.01693630027770996	0.9529329833984375	-0.034189701080322266	-0.019748600006103515	0.96831298828125	-0.044274600982666015	-0.025273300170898436	0.9921539916992187	-0.058703800201416016	-0.033917999267578124	1.06075
24	0.8	-0.008477789878845215	-0.12294300079345703	0.9985289916992187	-0.018009599685668946	-0.1039209976196289	1.0133300170898438	-0.03583760070800781	-0.09481099700927734	1.0370999755859376	-0.04140250015258789	-0.06369950103759765	1.047260009765625	-0.0171560001373291	-0.09736620330810547	0.9216640014648437	-0.030371599197387696	-0.09417040252685546	0.9396160278320312	-0.04356169891357422	-0.09038200378417968	0.9586129760742188	-0.05558729934692383	-0.08142489624023437	0.9929099731445312	-0.009566519737243652	-0.06451789855957031	0.9080869750976562	-0.023733299255371095	-0.06493280029296875	0.927823974609375	-0.04129710006713867	-0.06404039764404297	0.9517379760742187	-0.05743439865112305	-0.060610198974609376	0.98714697265625	-0.00838521957397461	-0.04137200164794922	0.91410302734375	-0.022568099975585936	-0.040524898529052736	0.9325460205078125	-0.03956320190429687	-0.0402573013305664	0.9540560302734375	-0.05373310089111328	-0.041686901092529295	0.9890969848632812	-0.011496800422668457	-0.015295000076293945	0.9369940185546874	-0.02370919990539551	-0.01708639907836914	0.9530579833984375	-0.03425329971313477	-0.01986440086364746	0.9684249877929687	-0.04440700149536133	-0.025379600524902343	0.9923079833984375	-0.05893569946289062	-0.03390290069580078	1.0611600341796874
25	0.8333333333333334	-0.00849137020111084	-0.12296900177001953	0.998677001953125	-0.0180841007232666	-0.10397599792480469	1.0135	-0.035925300598144534	-0.09485070037841797	1.0371600341796876	-0.041486801147460936	-0.063714599609375	1.0473399658203124	-0.017183000564575196	-0.09742279815673828	0.9217979736328125	-0.03039299964904785	-0.09422470092773437	0.9397670288085938	-0.04358639907836914	-0.09044390106201172	0.9587589721679688	-0.05569770050048828	-0.08147769927978515	0.9931170043945312	-0.009586540222167969	-0.06460980224609375	0.9082080078125	-0.02375200080871582	-0.06502330017089844	0.9279539794921875	-0.04135260009765625	-0.06410780334472656	0.9518939819335938	-0.057506500244140626	-0.06066109848022461	0.9872919921875	-0.008418560028076172	-0.04146160125732422	0.914239990234375	-0.02264139938354492	-0.04060940170288086	0.932739990234375	-0.03965200042724609	-0.040349998474121095	0.954208984375	-0.05385150146484375	-0.0417411994934082	0.9891339721679687	-0.011558799743652344	-0.015381600379943848	0.9371079711914062	-0.023776100158691405	-0.017156600952148438	0.9531610107421875	-0.03433869934082031	-0.0199330997467041	0.9685	-0.04443389892578125	-0.025460699081420898	0.9923170166015625	-0.059018001556396485	-0.03399589920043945	1.0611300048828125
26	0.8666666666666667	-0.008515999794006348	-0.12295999908447265	0.9987470092773437	-0.018056699752807617	-0.10394599914550781	1.0135900268554687	-0.03587680053710938	-0.09485269927978515	1.037239990234375	-0.04147520065307617	-0.06375350189208985	1.0473599853515625	-0.017211999893188477	-0.09739679718017578	0.921875	-0.030403299331665037	-0.09422350311279297	0.9397860107421875	-0.043600799560546875	-0.0904657974243164	0.9587760009765625	-0.055695899963378905	-0.0814927978515625	0.9929749755859375	-0.009612939834594726	-0.0646176986694336	0.9082839965820313	-0.02378059959411621	-0.06504519653320312	0.9280180053710938	-0.04137070083618164	-0.06412020111083984	0.9519219970703126	-0.057571701049804684	-0.06068730163574219	0.9872490234375	-0.008493020057678222	-0.041473499298095705	0.9142780151367188	-0.0227052001953125	-0.04061750030517578	0.9327329711914063	-0.0396884994506836	-0.04034000015258789	0.954218017578125	-0.053929901123046874	-0.04172159957885742	0.989177978515625	-0.011745200157165528	-0.015434499740600585	0.9370709838867187	-0.023932199478149414	-0.01720509910583496	0.9531510009765625	-0.034425498962402344	-0.019966400146484375	0.9684810180664063	-0.04453789901733399	-0.025389699935913085	0.9923900146484375	-0.05906829833984375	-0.03403839874267578	1.061239990234375
